<svg width="198" height="197" viewBox="0 0 198 197" fill="none" xmlns="http://www.w3.org/2000/svg">
<path d="M57 142H0V184.2C0 188.68 0 190.921 0.871948 192.632C1.63893 194.137 2.86278 195.361 4.36808 196.128C6.07937 197 8.31958 197 12.8 197H57V142Z" fill="#1F89EE"/>
<path d="M164.618 197C165.679 197 166.697 196.579 167.447 195.828L195.828 167.447C196.579 166.697 197 165.679 197 164.618V7.99999C197 3.58171 193.418 0 189 0H34.189C33.1281 0 32.1107 0.421427 31.3605 1.17157L1.17157 31.3605C0.421428 32.1107 0 33.1281 0 34.189V137H61V197H164.618Z" fill="url(#paint0_linear_5_288)"/>
<defs>
<linearGradient id="paint0_linear_5_288" x1="191.578" y1="2.71101" x2="138" y2="197" gradientUnits="userSpaceOnUse">
<stop offset="0.303282" stop-color="#16B256"/>
<stop offset="0.832792" stop-color="#1F89EE"/>
</linearGradient>
</defs>
</svg>
